<svg width="352" height="73" viewBox="0 0 352 73" fill="none" xmlns="http://www.w3.org/2000/svg">
<path d="M37.3594 53.8594C37.3594 52.7969 37.2031 51.8438 36.8906 51C36.5781 50.125 36 49.3125 35.1562 48.5625C34.3125 47.8125 33.0938 47.0625 31.5 46.3125C29.9375 45.5312 27.875 44.7188 25.3125 43.875C22.3125 42.875 19.4219 41.75 16.6406 40.5C13.8594 39.2188 11.375 37.7344 9.1875 36.0469C7 34.3281 5.26562 32.3281 3.98438 30.0469C2.70312 27.7344 2.0625 25.0469 2.0625 21.9844C2.0625 19.0469 2.71875 16.4062 4.03125 14.0625C5.34375 11.6875 7.17188 9.67188 9.51562 8.01562C11.8906 6.32812 14.6719 5.04688 17.8594 4.17188C21.0469 3.26562 24.5312 2.8125 28.3125 2.8125C33.3125 2.8125 37.7188 3.6875 41.5312 5.4375C45.375 7.15625 48.375 9.60938 50.5312 12.7969C52.7188 15.9531 53.8125 19.6875 53.8125 24H37.4531C37.4531 22.2812 37.0938 20.7656 36.375 19.4531C35.6875 18.1406 34.6406 17.1094 33.2344 16.3594C31.8281 15.6094 30.0625 15.2344 27.9375 15.2344C25.875 15.2344 24.1406 15.5469 22.7344 16.1719C21.3281 16.7969 20.2656 17.6406 19.5469 18.7031C18.8281 19.7344 18.4688 20.875 18.4688 22.125C18.4688 23.1562 18.75 24.0938 19.3125 24.9375C19.9062 25.75 20.7344 26.5156 21.7969 27.2344C22.8906 27.9531 24.2031 28.6406 25.7344 29.2969C27.2969 29.9531 29.0469 30.5938 30.9844 31.2188C34.6094 32.375 37.8281 33.6719 40.6406 35.1094C43.4844 36.5156 45.875 38.125 47.8125 39.9375C49.7812 41.7188 51.2656 43.75 52.2656 46.0312C53.2969 48.3125 53.8125 50.8906 53.8125 53.7656C53.8125 56.8281 53.2188 59.5469 52.0312 61.9219C50.8438 64.2969 49.1406 66.3125 46.9219 67.9688C44.7031 69.5938 42.0469 70.8281 38.9531 71.6719C35.8594 72.5156 32.4062 72.9375 28.5938 72.9375C25.0938 72.9375 21.6406 72.5 18.2344 71.625C14.8594 70.7188 11.7969 69.3438 9.04688 67.5C6.29688 65.625 4.09375 63.2344 2.4375 60.3281C0.8125 57.3906 0 53.9062 0 49.875H16.5C16.5 51.875 16.7656 53.5625 17.2969 54.9375C17.8281 56.3125 18.6094 57.4219 19.6406 58.2656C20.6719 59.0781 21.9375 59.6719 23.4375 60.0469C24.9375 60.3906 26.6562 60.5625 28.5938 60.5625C30.6875 60.5625 32.375 60.2656 33.6562 59.6719C34.9375 59.0469 35.875 58.2344 36.4688 57.2344C37.0625 56.2031 37.3594 55.0781 37.3594 53.8594Z" fill="#6D6AF0"/>
<path d="M82.9688 60.75C84.4375 60.75 85.6875 60.4844 86.7188 59.9531C87.7812 59.3906 88.5781 58.6094 89.1094 57.6094C89.6719 56.5781 89.9375 55.3438 89.9062 53.9062H104.766C104.797 57.7188 103.859 61.0625 101.953 63.9375C100.078 66.7812 97.5156 69 94.2656 70.5938C91.0469 72.1562 87.4062 72.9375 83.3438 72.9375C79.375 72.9375 75.9062 72.2969 72.9375 71.0156C69.9688 69.7031 67.4844 67.8906 65.4844 65.5781C63.5156 63.2344 62.0312 60.5 61.0312 57.375C60.0625 54.25 59.5781 50.8594 59.5781 47.2031V46.125C59.5781 42.4688 60.0625 39.0781 61.0312 35.9531C62.0312 32.7969 63.5156 30.0625 65.4844 27.75C67.4844 25.4062 69.9531 23.5938 72.8906 22.3125C75.8594 21 79.3125 20.3438 83.25 20.3438C87.4688 20.3438 91.1875 21.1406 94.4062 22.7344C97.6562 24.3281 100.203 26.6406 102.047 29.6719C103.891 32.7031 104.797 36.375 104.766 40.6875H89.9062C89.9375 39.1562 89.7031 37.7812 89.2031 36.5625C88.7031 35.3438 87.9219 34.375 86.8594 33.6562C85.8281 32.9062 84.5 32.5312 82.875 32.5312C81.25 32.5312 79.9375 32.8906 78.9375 33.6094C77.9375 34.3281 77.1719 35.3281 76.6406 36.6094C76.1406 37.8594 75.7969 39.2969 75.6094 40.9219C75.4531 42.5469 75.375 44.2812 75.375 46.125V47.2031C75.375 49.0781 75.4531 50.8438 75.6094 52.5C75.7969 54.125 76.1562 55.5625 76.6875 56.8125C77.2188 58.0312 77.9844 59 78.9844 59.7188C79.9844 60.4062 81.3125 60.75 82.9688 60.75Z" fill="#6D6AF0"/>
<path d="M126.984 0V72H111.188V0H126.984ZM125.109 44.9062L121.406 45C121.406 41.4375 121.844 38.1562 122.719 35.1562C123.594 32.1562 124.844 29.5469 126.469 27.3281C128.094 25.1094 130.047 23.3906 132.328 22.1719C134.609 20.9531 137.141 20.3438 139.922 20.3438C142.422 20.3438 144.703 20.7031 146.766 21.4219C148.859 22.1406 150.656 23.2969 152.156 24.8906C153.688 26.4844 154.859 28.5625 155.672 31.125C156.516 33.6875 156.938 36.8125 156.938 40.5V72H141.047V40.4062C141.047 38.3438 140.75 36.75 140.156 35.625C139.594 34.4688 138.781 33.6719 137.719 33.2344C136.656 32.7656 135.359 32.5312 133.828 32.5312C131.984 32.5312 130.484 32.8438 129.328 33.4688C128.172 34.0938 127.281 34.9688 126.656 36.0938C126.062 37.1875 125.656 38.4844 125.438 39.9844C125.219 41.4844 125.109 43.125 125.109 44.9062Z" fill="#6D6AF0"/>
<path d="M163.734 47.1562V46.1719C163.734 42.4531 164.266 39.0312 165.328 35.9062C166.391 32.75 167.953 30.0156 170.016 27.7031C172.078 25.3906 174.625 23.5938 177.656 22.3125C180.688 21 184.188 20.3438 188.156 20.3438C192.156 20.3438 195.672 21 198.703 22.3125C201.766 23.5938 204.328 25.3906 206.391 27.7031C208.453 30.0156 210.016 32.75 211.078 35.9062C212.141 39.0312 212.672 42.4531 212.672 46.1719V47.1562C212.672 50.8438 212.141 54.2656 211.078 57.4219C210.016 60.5469 208.453 63.2812 206.391 65.625C204.328 67.9375 201.781 69.7344 198.75 71.0156C195.719 72.2969 192.219 72.9375 188.25 72.9375C184.281 72.9375 180.766 72.2969 177.703 71.0156C174.641 69.7344 172.078 67.9375 170.016 65.625C167.953 63.2812 166.391 60.5469 165.328 57.4219C164.266 54.2656 163.734 50.8438 163.734 47.1562ZM179.531 46.1719V47.1562C179.531 49.0625 179.672 50.8438 179.953 52.5C180.234 54.1562 180.703 55.6094 181.359 56.8594C182.016 58.0781 182.906 59.0312 184.031 59.7188C185.156 60.4062 186.562 60.75 188.25 60.75C189.906 60.75 191.281 60.4062 192.375 59.7188C193.5 59.0312 194.391 58.0781 195.047 56.8594C195.703 55.6094 196.172 54.1562 196.453 52.5C196.734 50.8438 196.875 49.0625 196.875 47.1562V46.1719C196.875 44.3281 196.734 42.5938 196.453 40.9688C196.172 39.3125 195.703 37.8594 195.047 36.6094C194.391 35.3281 193.5 34.3281 192.375 33.6094C191.25 32.8906 189.844 32.5312 188.156 32.5312C186.5 32.5312 185.109 32.8906 183.984 33.6094C182.891 34.3281 182.016 35.3281 181.359 36.6094C180.703 37.8594 180.234 39.3125 179.953 40.9688C179.672 42.5938 179.531 44.3281 179.531 46.1719Z" fill="#6D6AF0"/>
<path d="M197.562 47.1562V46.1719C197.562 42.4531 198.094 39.0312 199.156 35.9062C200.219 32.75 201.781 30.0156 203.844 27.7031C205.906 25.3906 208.453 23.5938 211.484 22.3125C214.516 21 218.016 20.3438 221.984 20.3438C225.984 20.3438 229.5 21 232.531 22.3125C235.594 23.5938 238.156 25.3906 240.219 27.7031C242.281 30.0156 243.844 32.75 244.906 35.9062C245.969 39.0312 246.5 42.4531 246.5 46.1719V47.1562C246.5 50.8438 245.969 54.2656 244.906 57.4219C243.844 60.5469 242.281 63.2812 240.219 65.625C238.156 67.9375 235.609 69.7344 232.578 71.0156C229.547 72.2969 226.047 72.9375 222.078 72.9375C218.109 72.9375 214.594 72.2969 211.531 71.0156C208.469 69.7344 205.906 67.9375 203.844 65.625C201.781 63.2812 200.219 60.5469 199.156 57.4219C198.094 54.2656 197.562 50.8438 197.562 47.1562ZM213.359 46.1719V47.1562C213.359 49.0625 213.5 50.8438 213.781 52.5C214.062 54.1562 214.531 55.6094 215.188 56.8594C215.844 58.0781 216.734 59.0312 217.859 59.7188C218.984 60.4062 220.391 60.75 222.078 60.75C223.734 60.75 225.109 60.4062 226.203 59.7188C227.328 59.0312 228.219 58.0781 228.875 56.8594C229.531 55.6094 230 54.1562 230.281 52.5C230.562 50.8438 230.703 49.0625 230.703 47.1562V46.1719C230.703 44.3281 230.562 42.5938 230.281 40.9688C230 39.3125 229.531 37.8594 228.875 36.6094C228.219 35.3281 227.328 34.3281 226.203 33.6094C225.078 32.8906 223.672 32.5312 221.984 32.5312C220.328 32.5312 218.938 32.8906 217.812 33.6094C216.719 34.3281 215.844 35.3281 215.188 36.6094C214.531 37.8594 214.062 39.3125 213.781 40.9688C213.5 42.5938 213.359 44.3281 213.359 46.1719Z" fill="#6D6AF0"/>
<path d="M269.844 0V72H254V0H269.844Z" fill="#6D6AF0"/>
<path d="M296.281 21.2812V72H280.438V21.2812H296.281ZM279.5 8.20312C279.5 5.95312 280.312 4.10938 281.938 2.67188C283.562 1.23438 285.672 0.515625 288.266 0.515625C290.859 0.515625 292.969 1.23438 294.594 2.67188C296.219 4.10938 297.031 5.95312 297.031 8.20312C297.031 10.4531 296.219 12.2969 294.594 13.7344C292.969 15.1719 290.859 15.8906 288.266 15.8906C285.672 15.8906 283.562 15.1719 281.938 13.7344C280.312 12.2969 279.5 10.4531 279.5 8.20312Z" fill="#6D6AF0"/>
<path d="M335.656 59.6719V21.2812H351.5V72H336.688L335.656 59.6719ZM337.156 49.3594L341.281 49.2656C341.281 52.6719 340.875 55.8281 340.062 58.7344C339.25 61.6094 338.047 64.1094 336.453 66.2344C334.891 68.3594 332.953 70.0156 330.641 71.2031C328.359 72.3594 325.719 72.9375 322.719 72.9375C320.219 72.9375 317.922 72.5938 315.828 71.9062C313.766 71.1875 311.984 70.0781 310.484 68.5781C308.984 67.0469 307.812 65.0938 306.969 62.7188C306.156 60.3125 305.75 57.4375 305.75 54.0938V21.2812H321.547V54.1875C321.547 55.3125 321.688 56.2812 321.969 57.0938C322.25 57.9062 322.656 58.5938 323.188 59.1562C323.719 59.6875 324.375 60.0938 325.156 60.375C325.969 60.625 326.891 60.75 327.922 60.75C330.297 60.75 332.156 60.25 333.5 59.25C334.844 58.25 335.781 56.8906 336.312 55.1719C336.875 53.4531 337.156 51.5156 337.156 49.3594Z" fill="#6D6AF0"/>
<circle cx="224.5" cy="53.5" r="3.5" fill="#6D6AF0"/>
<circle cx="190.5" cy="53.5" r="3.5" fill="#6D6AF0"/>
</svg>
